<svg width="24" height="24" viewBox="0 0 24 24" fill="none" xmlns="http://www.w3.org/2000/svg">
<path d="M15.3773 16.8712H8.62268V17.7887C8.62269 17.9003 8.62276 17.988 8.62384 18.0637C8.62392 18.0689 8.62376 18.0739 8.62384 18.0787C8.69181 18.0799 8.771 18.08 8.87153 18.08H15.1285C15.2284 18.08 15.3073 18.0799 15.375 18.0787C15.3751 18.0738 15.3761 18.0689 15.3762 18.0637C15.3772 17.988 15.3773 17.9003 15.3773 17.7887V16.8712ZM18.2222 8.715C18.2222 8.04232 18.2212 7.59402 18.1956 7.25C18.1709 6.91707 18.1271 6.76592 18.0833 6.67125C17.9618 6.40888 17.7699 6.19803 17.537 6.0675C17.4565 6.02237 17.3248 5.97567 17.0255 5.94875C16.7152 5.92086 16.3102 5.92 15.6979 5.92H8.30208C7.68984 5.92 7.28484 5.92086 6.97454 5.94875C6.67524 5.97567 6.54349 6.02237 6.46296 6.0675C6.23008 6.19803 6.0382 6.40887 5.91667 6.67125C5.87286 6.76592 5.82914 6.91707 5.8044 7.25C5.77885 7.59402 5.77778 8.04232 5.77778 8.715V12.1562C5.77778 12.8289 5.77885 13.2772 5.8044 13.6212C5.82915 13.9542 5.87285 14.1053 5.91667 14.2C6.0382 14.4624 6.23008 14.6732 6.46296 14.8037C6.5435 14.8489 6.67528 14.8956 6.97454 14.9225C7.28484 14.9504 7.68984 14.9512 8.30208 14.9512H15.6979C16.3102 14.9512 16.7152 14.9504 17.0255 14.9225C17.3247 14.8956 17.4565 14.8489 17.537 14.8037C17.7699 14.6732 17.9618 14.4624 18.0833 14.2C18.1272 14.1053 18.1708 13.9542 18.1956 13.6212C18.2212 13.2772 18.2222 12.8289 18.2222 12.1562V8.715ZM20 12.1562C20 12.7978 20.0002 13.3364 19.9676 13.775C19.9342 14.2239 19.862 14.6517 19.6736 15.0587C19.3861 15.6795 18.9253 16.1881 18.3553 16.5075C17.9796 16.718 17.5843 16.7992 17.1725 16.8362C17.1667 16.8368 17.1609 16.8357 17.1551 16.8362V17.7887C17.1551 17.992 17.1567 18.2012 17.1435 18.3787C17.1295 18.5672 17.095 18.8025 16.9838 19.0425C16.8327 19.3686 16.5902 19.6368 16.2882 19.8062C16.0647 19.9315 15.8449 19.9705 15.6701 19.9862C15.5061 20.001 15.3127 20 15.1285 20H8.87153C8.68733 20 8.49385 20.001 8.32986 19.9862C8.15508 19.9705 7.93529 19.9315 7.71181 19.8062C7.40978 19.6368 7.1673 19.3686 7.0162 19.0425C6.90504 18.8025 6.87048 18.5672 6.85648 18.3787C6.84331 18.2012 6.84491 17.992 6.84491 17.7887V16.8362C6.83914 16.8357 6.83328 16.8368 6.82755 16.8362C6.41566 16.7992 6.02036 16.718 5.64468 16.5075C5.07474 16.1881 4.61391 15.6795 4.32639 15.0587C4.13796 14.6517 4.06579 14.2239 4.03241 13.775C3.99983 13.3364 4 12.7978 4 12.1562V8.715C4 8.07343 3.99983 7.53486 4.03241 7.09625C4.06579 6.64709 4.13778 6.21844 4.32639 5.81125C4.61393 5.19071 5.07486 4.68312 5.64468 4.36375C6.02038 4.15325 6.41564 4.07202 6.82755 4.035C7.22862 3.99897 7.7198 4 8.30208 4H15.6979C16.2802 4 16.7714 3.99897 17.1725 4.035C17.5844 4.07202 17.9796 4.15325 18.3553 4.36375C18.9251 4.68312 19.3861 5.19071 19.6736 5.81125C19.8622 6.21844 19.9342 6.64709 19.9676 7.09625C20.0002 7.53485 20 8.07343 20 8.715V12.1562Z" fill="#016FEA"/>
</svg>
