<svg width="24" height="24" viewBox="0 0 24 24" fill="none" xmlns="http://www.w3.org/2000/svg">
<path d="M4 16.0232C4 15.3398 4.31472 14.7402 4.77857 14.2536C5.23923 13.7704 5.87355 13.3667 6.60357 13.0446C6.94995 12.8921 7.35432 13.0492 7.50714 13.3955C7.65997 13.742 7.5035 14.1471 7.15714 14.3C6.53317 14.5753 6.06939 14.8866 5.77143 15.1991C5.47683 15.5081 5.37143 15.7861 5.37143 16.0232C5.37166 16.4942 5.82944 17.1488 7.10982 17.725C8.32614 18.2723 10.0544 18.6286 12 18.6286C13.9456 18.6286 15.6739 18.2723 16.8902 17.725C18.1706 17.1488 18.6283 16.4942 18.6286 16.0232C18.6286 15.7861 18.5232 15.5081 18.2286 15.1991C17.9306 14.8866 17.4668 14.5753 16.8429 14.3C16.4965 14.1471 16.34 13.742 16.4929 13.3955C16.6457 13.0492 17.0501 12.8921 17.3964 13.0446C18.1264 13.3667 18.7608 13.7704 19.2214 14.2536C19.6853 14.7402 20 15.3398 20 16.0232C19.9998 17.3698 18.82 18.361 17.4536 18.9759C16.0227 19.6198 14.0938 20 12 20C9.90621 20 7.97734 19.6198 6.54643 18.9759C5.18002 18.361 4.00021 17.3698 4 16.0232ZM15.7027 9.07411C15.7026 7.02916 14.045 5.37143 12 5.37143C9.95503 5.37143 8.29742 7.02916 8.29732 9.07411C8.29732 10.2791 8.95316 11.2071 9.88929 12.1821C10.1211 12.4235 10.3617 12.6605 10.6098 12.9045C10.8553 13.1459 11.1083 13.3954 11.3491 13.6491C11.5736 13.8857 11.7949 14.1344 12 14.3973C12.2051 14.1344 12.4264 13.8857 12.6509 13.6491C12.8917 13.3954 13.1447 13.1459 13.3902 12.9045C13.6383 12.6605 13.8789 12.4235 14.1107 12.1821C15.0468 11.2071 15.7027 10.2791 15.7027 9.07411ZM12.0455 9.07411C12.0454 9.04894 12.0252 9.02857 12 9.02857C11.9748 9.02857 11.9546 9.04894 11.9545 9.07411C11.9545 9.09935 11.9748 9.11964 12 9.11964C12.0252 9.11964 12.0455 9.09935 12.0455 9.07411ZM13.417 9.07411C13.417 9.85677 12.7827 10.4911 12 10.4911C11.2173 10.4911 10.583 9.85677 10.583 9.07411C10.5831 8.29152 11.2174 7.65714 12 7.65714C12.7826 7.65714 13.4169 8.29152 13.417 9.07411ZM17.0741 9.07411C17.0741 10.8414 16.0839 12.1074 15.1 13.1321C14.8519 13.3906 14.5964 13.6424 14.3518 13.883C14.1045 14.1262 13.8684 14.3589 13.6464 14.5929C13.1995 15.0638 12.8424 15.5055 12.6134 15.9634C12.4972 16.1957 12.2597 16.3429 12 16.3429C11.7403 16.3429 11.5028 16.1957 11.3866 15.9634C11.1576 15.5055 10.8005 15.0638 10.3536 14.5929C10.1316 14.3589 9.89549 14.1262 9.64821 13.883C9.40358 13.6424 9.14811 13.3906 8.9 13.1321C7.91615 12.1074 6.92589 10.8414 6.92589 9.07411C6.92599 6.27174 9.19761 4 12 4C14.8024 4 17.074 6.27174 17.0741 9.07411Z" fill="#016FEA"/>
</svg>
