<svg width="24" height="24" viewBox="0 0 24 24" fill="none" xmlns="http://www.w3.org/2000/svg">
<path d="M12.182 5C12.9306 5 13.5469 4.99911 14.0472 5.03845C14.5582 5.07864 15.0283 5.16474 15.4694 5.38111C16.1535 5.71664 16.71 6.2522 17.0586 6.91065C17.2834 7.33529 17.3728 7.78774 17.4146 8.27954C17.4519 8.71878 17.4535 9.25084 17.4536 9.8877L19.2061 8.20093C19.3881 8.02581 19.568 7.85201 19.7246 7.72583C19.8581 7.61823 20.1395 7.40257 20.5289 7.37293L20.6914 7.36951C21.0146 7.38205 21.3228 7.50539 21.5605 7.71643L21.6733 7.82922L21.7585 7.9386C21.9363 8.19816 21.9696 8.47936 21.9831 8.62561C22.0011 8.82142 22 9.06746 22 9.31519V14.6848C22 14.9325 22.0011 15.1786 21.9831 15.3744C21.9677 15.5415 21.9267 15.885 21.6733 16.1708C21.3898 16.4903 20.9641 16.66 20.5289 16.6271C20.1395 16.5974 19.8581 16.3818 19.7246 16.2742C19.568 16.148 19.3881 15.9742 19.2061 15.7991L17.4536 14.1115C17.4535 14.7487 17.4519 15.281 17.4146 15.7205C17.3728 16.2123 17.2834 16.6647 17.0586 17.0894C16.71 17.7478 16.1535 18.2834 15.4694 18.6189C15.0283 18.8353 14.5582 18.9214 14.0472 18.9615C13.5469 19.0009 12.9306 19 12.182 19H7.27255C6.52392 19 5.90766 19.0009 5.40731 18.9615C4.89635 18.9214 4.42627 18.8353 3.98509 18.6189C3.30099 18.2834 2.74456 17.7478 2.39595 17.0894C2.17116 16.6647 2.08171 16.2123 2.03995 15.7205C1.99907 15.2389 2 14.6457 2 13.9252V10.0748C2 9.35428 1.99907 8.76112 2.03995 8.27954C2.08171 7.78774 2.17116 7.33529 2.39595 6.91065C2.74456 6.2522 3.30099 5.71664 3.98509 5.38111C4.42627 5.16474 4.89635 5.07864 5.40731 5.03845C5.90766 4.99911 6.52392 5 7.27255 5H12.182ZM17.831 12L20.1818 14.2618V9.73731L17.831 12ZM3.81818 13.9252C3.81818 14.6745 3.8185 15.184 3.85192 15.5778C3.88448 15.9614 3.94371 16.1578 4.01616 16.2947C4.19046 16.6239 4.46868 16.8917 4.81072 17.0594C4.9529 17.1292 5.15701 17.1862 5.55557 17.2175C5.9647 17.2497 6.49401 17.25 7.27255 17.25H12.182C12.9605 17.25 13.4898 17.2497 13.899 17.2175C14.2975 17.1862 14.5016 17.1292 14.6438 17.0594C14.9859 16.8917 15.2641 16.6239 15.4384 16.2947C15.5108 16.1578 15.5701 15.9614 15.6026 15.5778C15.636 15.184 15.6364 14.6745 15.6364 13.9252V10.0748C15.6364 9.32549 15.636 8.81603 15.6026 8.42224C15.5701 8.03863 15.5108 7.84217 15.4384 7.70532C15.2641 7.3761 14.9859 7.10832 14.6438 6.94055C14.5016 6.87082 14.2975 6.81381 13.899 6.78247C13.4898 6.75031 12.9605 6.75 12.182 6.75H7.27255C6.49401 6.75 5.9647 6.75031 5.55557 6.78247C5.15701 6.81381 4.9529 6.87082 4.81072 6.94055C4.46868 7.10832 4.19046 7.3761 4.01616 7.70532C3.94371 7.84217 3.88448 8.03863 3.85192 8.42224C3.8185 8.81603 3.81818 9.32549 3.81818 10.0748V13.9252Z" fill="#016FEA"/>
</svg>
